<?xml version="1.0" encoding="UTF-8" standalone="no"?>
<svg
   width="210mm"
   height="297mm"
   viewBox="0 0 2100 2970"
   version="1.2"
   id="svg75"
   sodipodi:docname="medidas.svg"
   inkscape:version="1.4.2 (ebf0e94, 2025-05-08)"
   xmlns:inkscape="http://www.inkscape.org/namespaces/inkscape"
   xmlns:sodipodi="http://sodipodi.sourceforge.net/DTD/sodipodi-0.dtd"
   xmlns="http://www.w3.org/2000/svg"
   xmlns:svg="http://www.w3.org/2000/svg"
   xmlns:rdf="http://www.w3.org/1999/02/22-rdf-syntax-ns#"
   xmlns:cc="http://creativecommons.org/ns#"
   xmlns:dc="http://purl.org/dc/elements/1.1/">
  <sodipodi:namedview
     id="namedview75"
     pagecolor="#ffffff"
     bordercolor="#000000"
     borderopacity="0.25"
     inkscape:showpageshadow="2"
     inkscape:pageopacity="0.0"
     inkscape:pagecheckerboard="0"
     inkscape:deskcolor="#d1d1d1"
     inkscape:document-units="mm"
     inkscape:zoom="0.45254834"
     inkscape:cx="646.33979"
     inkscape:cy="551.32232"
     inkscape:window-width="1920"
     inkscape:window-height="1009"
     inkscape:window-x="-8"
     inkscape:window-y="-8"
     inkscape:window-maximized="1"
     inkscape:current-layer="Page" />
  <title
     id="title1">FreeCAD SVG Export</title>
  <desc
     id="desc1">Drawing page: Page exported from FreeCAD document: caja</desc>
  <defs
     id="defs1" />
  <g
     id="Page"
     inkscape:label="TechDraw"
     inkscape:groupmode="layer">
    <g
       id="Default_Template_A4_Landscape.svg"
       transform="scale(10)"
       style="stroke:none">
      <metadata
         id="metadata8">
        <rdf:RDF>
          <cc:Work
             rdf:about="">
            <dc:format>image/svg+xml</dc:format>
            <dc:type
               rdf:resource="http://purl.org/dc/dcmitype/StillImage" />
            <dc:title>FreeCAD SVG Export</dc:title>
          </cc:Work>
        </rdf:RDF>
      </metadata>
    </g>
    <g
       stroke="#000000"
       font-style="normal"
       stroke-width="1"
       transform="translate(977.48949,1267.6318)"
       font-size="27.5167px"
       stroke-opacity="1"
       stroke-linejoin="bevel"
       font-family="'MS Shell Dlg 2'"
       fill="none"
       stroke-linecap="square"
       font-weight="400"
       id="g1"
       style="fill-rule:evenodd">
      <rect
         width="0"
         height="0"
         y="0"
         x="0"
         id="rect1" />
    </g>
    <g
       stroke="none"
       font-style="normal"
       transform="matrix(2,0,0,2,1060.1718,1499.1422)"
       font-size="27.5167px"
       font-family="'MS Shell Dlg 2'"
       fill="#f1f3f5"
       fill-opacity="0"
       font-weight="400"
       id="g2"
       style="fill-rule:evenodd;stroke-width:1;stroke-linecap:square;stroke-linejoin:bevel">
      <path
         vector-effect="non-scaling-stroke"
         d="m -462.5,-707.5 h 925 v 1415 h -925 v -1415"
         fill-rule="evenodd"
         id="path1" />
    </g>
    <g
       stroke="none"
       font-style="normal"
       transform="matrix(2,0,0,2,1060.1718,1499.1422)"
       font-size="27.5167px"
       font-family="'MS Shell Dlg 2'"
       fill="#f1f3f5"
       fill-opacity="0"
       font-weight="400"
       id="g3"
       style="fill-rule:evenodd;stroke-width:1;stroke-linecap:square;stroke-linejoin:bevel">
      <path
         vector-effect="non-scaling-stroke"
         d="m 93.6766,-130.088 c 0.0316,-0.026 0.0632,-0.053 0.0948,-0.079 63.7936,-52.71 85.1046,-141.219 52.2946,-217.189 -32.81,-75.97 -111.8539,-121.137 -193.9622,-110.835 -82.1078,10.302 -147.5428,73.598 -160.5668,155.319 -2.556,16.036 -17.628,26.964 -33.665,24.409 -16.036,-2.556 -26.964,-17.628 -24.409,-33.665 17.14,-107.543 103.247,-190.842 211.2987,-204.409 108.0521,-13.567 212.0793,45.859 255.2733,145.827 43.195,99.967 15.176,216.449 -68.757,285.8362 L -106.287,113.097 H 262.5 c 16.239,0 29.403,13.164 29.403,29.403 0,16.239 -13.164,29.403 -29.403,29.403 h -450 c -12.379,0 -23.433,-7.754 -27.647,-19.393 -4.214,-11.64 -0.686,-24.673 8.824,-32.598 l 299.9996,-250"
         fill-rule="evenodd"
         id="path2" />
    </g>
    <g
       stroke="none"
       font-style="normal"
       transform="matrix(2,0,0,2,1060.1718,1499.1422)"
       font-size="27.5167px"
       font-family="'MS Shell Dlg 2'"
       fill="#f1f3f5"
       fill-opacity="0"
       font-weight="400"
       id="g4"
       style="fill-rule:evenodd;stroke-width:1;stroke-linecap:square;stroke-linejoin:bevel">
      <path
         vector-effect="non-scaling-stroke"
         d="m 170.074,492.5 c 0,16.569 18.995,30 42.426,30 23.431,0 42.426,-13.431 42.426,-30 0,-16.569 -18.995,-30 -42.426,-30 -23.431,0 -42.426,13.431 -42.426,30"
         fill-rule="evenodd"
         id="path3" />
    </g>
    <g
       stroke="none"
       font-style="normal"
       transform="matrix(2,0,0,2,1060.1718,1499.1422)"
       font-size="27.5167px"
       font-family="'MS Shell Dlg 2'"
       fill="#f1f3f5"
       fill-opacity="0"
       font-weight="400"
       id="g5"
       style="fill-rule:evenodd;stroke-width:1;stroke-linecap:square;stroke-linejoin:bevel">
      <path
         vector-effect="non-scaling-stroke"
         d="m -337.5,607.5 c 0,13.807 -11.193,25 -25,25 -13.807,0 -25,-11.193 -25,-25 0,-13.807 11.193,-25 25,-25 13.807,0 25,11.193 25,25"
         fill-rule="evenodd"
         id="path4" />
    </g>
    <g
       stroke="none"
       font-style="normal"
       transform="matrix(2,0,0,2,1060.1718,1499.1422)"
       font-size="27.5167px"
       font-family="'MS Shell Dlg 2'"
       fill="#f1f3f5"
       fill-opacity="0"
       font-weight="400"
       id="g6"
       style="fill-rule:evenodd;stroke-width:1;stroke-linecap:square;stroke-linejoin:bevel">
      <path
         vector-effect="non-scaling-stroke"
         d="m 387.5,-607.5 c 0,13.807 -11.193,25 -25,25 -13.807,0 -25,-11.193 -25,-25 0,-13.807 11.193,-25 25,-25 13.807,0 25,11.193 25,25"
         fill-rule="evenodd"
         id="path5" />
    </g>
    <g
       stroke="none"
       font-style="normal"
       transform="matrix(2,0,0,2,1060.1718,1499.1422)"
       font-size="27.5167px"
       font-family="'MS Shell Dlg 2'"
       fill="#f1f3f5"
       fill-opacity="0"
       font-weight="400"
       id="g7"
       style="fill-rule:evenodd;stroke-width:1;stroke-linecap:square;stroke-linejoin:bevel">
      <path
         vector-effect="non-scaling-stroke"
         d="m -337.5,-607.5 c 0,13.807 -11.193,25 -25,25 -13.807,0 -25,-11.193 -25,-25 0,-13.807 11.193,-25 25,-25 13.807,0 25,11.193 25,25"
         fill-rule="evenodd"
         id="path6" />
    </g>
    <g
       stroke="#212529"
       font-style="normal"
       stroke-width="7"
       transform="matrix(2,0,0,2,1060.1718,1499.1422)"
       font-size="27.5167px"
       stroke-opacity="1"
       stroke-linejoin="bevel"
       font-family="'MS Shell Dlg 2'"
       fill="none"
       stroke-linecap="round"
       font-weight="400"
       id="g8"
       style="fill-rule:evenodd">
      <path
         vector-effect="none"
         d="m -462.5,-707.5 h 925"
         fill-rule="evenodd"
         id="path7" />
    </g>
    <g
       stroke="#212529"
       font-style="normal"
       stroke-width="7"
       transform="matrix(2,0,0,2,1060.1718,1499.1422)"
       font-size="27.5167px"
       stroke-opacity="1"
       stroke-linejoin="bevel"
       font-family="'MS Shell Dlg 2'"
       fill="none"
       stroke-linecap="round"
       font-weight="400"
       id="g9"
       style="fill-rule:evenodd">
      <path
         vector-effect="none"
         d="m -462.5,707.5 v -1415"
         fill-rule="evenodd"
         id="path8" />
    </g>
    <g
       stroke="#212529"
       font-style="normal"
       stroke-width="7"
       transform="matrix(2,0,0,2,1060.1718,1499.1422)"
       font-size="27.5167px"
       stroke-opacity="1"
       stroke-linejoin="bevel"
       font-family="'MS Shell Dlg 2'"
       fill="none"
       stroke-linecap="round"
       font-weight="400"
       id="g10"
       style="fill-rule:evenodd">
      <path
         vector-effect="none"
         d="m 462.5,-707.5 v 1415"
         fill-rule="evenodd"
         id="path9" />
    </g>
    <g
       stroke="#212529"
       font-style="normal"
       stroke-width="7"
       transform="matrix(2,0,0,2,1060.1718,1499.1422)"
       font-size="27.5167px"
       stroke-opacity="1"
       stroke-linejoin="bevel"
       font-family="'MS Shell Dlg 2'"
       fill="none"
       stroke-linecap="round"
       font-weight="400"
       id="g11"
       style="fill-rule:evenodd">
      <path
         vector-effect="none"
         d="m 462.5,707.5 h -925"
         fill-rule="evenodd"
         id="path10" />
    </g>
    <g
       stroke="#212529"
       font-style="normal"
       stroke-width="7"
       transform="matrix(2,0,0,2,1060.1718,1499.1422)"
       font-size="27.5167px"
       stroke-opacity="1"
       stroke-linejoin="bevel"
       font-family="'MS Shell Dlg 2'"
       fill="none"
       stroke-linecap="round"
       font-weight="400"
       id="g12"
       style="fill-rule:evenodd">
      <path
         vector-effect="none"
         d="m -337.5,607.5 c 0,13.807 -11.193,25 -25,25 -13.807,0 -25,-11.193 -25,-25 0,-13.807 11.193,-25 25,-25 13.807,0 25,11.193 25,25"
         fill-rule="evenodd"
         id="path11" />
    </g>
    <g
       stroke="#212529"
       font-style="normal"
       stroke-width="7"
       transform="matrix(2,0,0,2,1060.1718,1499.1422)"
       font-size="27.5167px"
       stroke-opacity="1"
       stroke-linejoin="bevel"
       font-family="'MS Shell Dlg 2'"
       fill="none"
       stroke-linecap="round"
       font-weight="400"
       id="g16"
       style="fill-rule:evenodd">
      <path
         vector-effect="none"
         d="m -337.5,-607.5 c 0,13.807 -11.193,25 -25,25 -13.807,0 -25,-11.193 -25,-25 0,-13.807 11.193,-25 25,-25 13.807,0 25,11.193 25,25"
         fill-rule="evenodd"
         id="path15" />
    </g>
    <g
       stroke="#212529"
       font-style="normal"
       stroke-width="7"
       transform="matrix(2,0,0,2,1060.1718,1499.1422)"
       font-size="27.5167px"
       stroke-opacity="1"
       stroke-linejoin="bevel"
       font-family="'MS Shell Dlg 2'"
       fill="none"
       stroke-linecap="round"
       font-weight="400"
       id="g17"
       style="fill-rule:evenodd">
      <path
         vector-effect="none"
         d="m -208.463,-302.872 c -2.556,16.036 -17.628,26.964 -33.665,24.409 -16.036,-2.556 -26.964,-17.628 -24.409,-33.665"
         fill-rule="evenodd"
         id="path16" />
    </g>
    <g
       stroke="#212529"
       font-style="normal"
       stroke-width="7"
       transform="matrix(2,0,0,2,1060.1718,1499.1422)"
       font-size="27.5167px"
       stroke-opacity="1"
       stroke-linejoin="bevel"
       font-family="'MS Shell Dlg 2'"
       fill="none"
       stroke-linecap="round"
       font-weight="400"
       id="g18"
       style="fill-rule:evenodd">
      <path
         vector-effect="none"
         d="m 93.7714,-130.167 c 63.7936,-52.71 85.1046,-141.219 52.2946,-217.189 -32.81,-75.97 -111.8539,-121.137 -193.9622,-110.835 -82.1078,10.302 -147.5428,73.598 -160.5668,155.319"
         fill-rule="evenodd"
         id="path17" />
    </g>
    <g
       stroke="#212529"
       font-style="normal"
       stroke-width="7"
       transform="matrix(2,0,0,2,1060.1718,1499.1422)"
       font-size="27.5167px"
       stroke-opacity="1"
       stroke-linejoin="bevel"
       font-family="'MS Shell Dlg 2'"
       fill="none"
       stroke-linecap="round"
       font-weight="400"
       id="g19"
       style="fill-rule:evenodd">
      <path
         vector-effect="none"
         d="M 131.278,-84.8738 C 215.211,-154.261 243.23,-270.743 200.035,-370.71 156.841,-470.678 52.8138,-530.104 -55.2383,-516.537 -163.29,-502.97 -249.397,-419.671 -266.537,-312.128"
         fill-rule="evenodd"
         id="path18" />
    </g>
    <g
       stroke="#212529"
       font-style="normal"
       stroke-width="7"
       transform="matrix(2,0,0,2,1060.1718,1499.1422)"
       font-size="27.5167px"
       stroke-opacity="1"
       stroke-linejoin="bevel"
       font-family="'MS Shell Dlg 2'"
       fill="none"
       stroke-linecap="round"
       font-weight="400"
       id="g20"
       style="fill-rule:evenodd">
      <path
         vector-effect="none"
         d="m 93.6766,-130.088 c 0.0316,-0.026 0.0632,-0.053 0.0948,-0.079"
         fill-rule="evenodd"
         id="path19" />
    </g>
    <g
       stroke="#212529"
       font-style="normal"
       stroke-width="7"
       transform="matrix(2,0,0,2,1060.1718,1499.1422)"
       font-size="27.5167px"
       stroke-opacity="1"
       stroke-linejoin="bevel"
       font-family="'MS Shell Dlg 2'"
       fill="none"
       stroke-linecap="round"
       font-weight="400"
       id="g21"
       style="fill-rule:evenodd">
      <path
         vector-effect="none"
         d="M 131.278,-84.8738 -106.287,113.097"
         fill-rule="evenodd"
         id="path20" />
    </g>
    <g
       stroke="#212529"
       font-style="normal"
       stroke-width="7"
       transform="matrix(2,0,0,2,1060.1718,1499.1422)"
       font-size="27.5167px"
       stroke-opacity="1"
       stroke-linejoin="bevel"
       font-family="'MS Shell Dlg 2'"
       fill="none"
       stroke-linecap="round"
       font-weight="400"
       id="g22"
       style="fill-rule:evenodd">
      <path
         vector-effect="none"
         d="m 93.6766,-130.088 -299.9996,250"
         fill-rule="evenodd"
         id="path21" />
    </g>
    <g
       stroke="#212529"
       font-style="normal"
       stroke-width="7"
       transform="matrix(2,0,0,2,1060.1718,1499.1422)"
       font-size="27.5167px"
       stroke-opacity="1"
       stroke-linejoin="bevel"
       font-family="'MS Shell Dlg 2'"
       fill="none"
       stroke-linecap="round"
       font-weight="400"
       id="g23"
       style="fill-rule:evenodd">
      <path
         vector-effect="none"
         d="M -106.287,113.097 H 262.5"
         fill-rule="evenodd"
         id="path22" />
    </g>
    <g
       stroke="#212529"
       font-style="normal"
       stroke-width="7"
       transform="matrix(2,0,0,2,1060.1718,1499.1422)"
       font-size="27.5167px"
       stroke-opacity="1"
       stroke-linejoin="bevel"
       font-family="'MS Shell Dlg 2'"
       fill="none"
       stroke-linecap="round"
       font-weight="400"
       id="g24"
       style="fill-rule:evenodd">
      <path
         vector-effect="none"
         d="m -187.5,171.903 c -12.379,0 -23.433,-7.754 -27.647,-19.393 -4.214,-11.64 -0.686,-24.673 8.824,-32.598"
         fill-rule="evenodd"
         id="path23" />
    </g>
    <g
       stroke="#212529"
       font-style="normal"
       stroke-width="7"
       transform="matrix(2,0,0,2,1060.1718,1499.1422)"
       font-size="27.5167px"
       stroke-opacity="1"
       stroke-linejoin="bevel"
       font-family="'MS Shell Dlg 2'"
       fill="none"
       stroke-linecap="round"
       font-weight="400"
       id="g25"
       style="fill-rule:evenodd">
      <path
         vector-effect="none"
         d="m 262.5,113.097 c 16.239,0 29.403,13.164 29.403,29.403 0,16.239 -13.164,29.403 -29.403,29.403"
         fill-rule="evenodd"
         id="path24" />
    </g>
    <g
       stroke="#212529"
       font-style="normal"
       stroke-width="7"
       transform="matrix(2,0,0,2,1060.1718,1499.1422)"
       font-size="27.5167px"
       stroke-opacity="1"
       stroke-linejoin="bevel"
       font-family="'MS Shell Dlg 2'"
       fill="none"
       stroke-linecap="round"
       font-weight="400"
       id="g26"
       style="fill-rule:evenodd">
      <path
         vector-effect="none"
         d="m -187.5,171.903 h 450"
         fill-rule="evenodd"
         id="path25" />
    </g>
    <g
       stroke="#212529"
       font-style="normal"
       stroke-width="7"
       transform="matrix(2,0,0,2,1060.1718,1499.1422)"
       font-size="27.5167px"
       stroke-opacity="1"
       stroke-linejoin="bevel"
       font-family="'MS Shell Dlg 2'"
       fill="none"
       stroke-linecap="round"
       font-weight="400"
       id="g27"
       style="fill-rule:evenodd">
      <path
         vector-effect="none"
         d="m 387.5,-607.5 c 0,13.807 -11.193,25 -25,25 -13.807,0 -25,-11.193 -25,-25 0,-13.807 11.193,-25 25,-25 13.807,0 25,11.193 25,25"
         fill-rule="evenodd"
         id="path26" />
    </g>
    <g
       stroke="#212529"
       font-style="normal"
       stroke-width="1"
       transform="matrix(2,0,0,2,437.55428,159.26093)"
       font-size="27.5167px"
       stroke-opacity="1"
       stroke-linejoin="bevel"
       font-family="'MS Shell Dlg 2'"
       fill="none"
       stroke-linecap="square"
       font-weight="400"
       id="g44"
       style="fill-rule:evenodd">
      <text
         xml:space="preserve"
         style="font-size:49.38888901px;text-align:start;writing-mode:lr-tb;direction:ltr;text-anchor:start;fill:#000000;stroke-width:1.32292"
         x="521.22937"
         y="48.527092"
         id="text3"><tspan
           sodipodi:role="line"
           id="tspan3"
           style="stroke-width:1.32292;font-size:49.38888901px"
           x="521.22937"
           y="48.527092" /></text>
      <text
         xml:space="preserve"
         style="font-size:49.3888px;text-align:start;writing-mode:lr-tb;direction:ltr;text-anchor:start;fill:#000000;stroke-width:1.32292"
         x="598.27417"
         y="8.0673494"
         id="text4"><tspan
           sodipodi:role="line"
           id="tspan4"
           style="stroke-width:1.32292"
           x="598.27417"
           y="8.0673494">(145,0)</tspan></text>
      <text
         xml:space="preserve"
         style="font-size:49.3888px;text-align:start;writing-mode:lr-tb;direction:ltr;text-anchor:start;fill:#000000;stroke-width:1.32292"
         x="460.88092"
         y="173.96239"
         id="text5"><tspan
           sodipodi:role="line"
           id="tspan5"
           style="stroke-width:1.32292"
           x="460.88092"
           y="173.96239">(90, -30)</tspan></text>
      <text
         xml:space="preserve"
         style="font-size:49.3888px;text-align:start;writing-mode:lr-tb;direction:ltr;text-anchor:start;fill:#000000;stroke-width:1.32292"
         x="-115.42427"
         y="11.320058"
         id="text6"><tspan
           sodipodi:role="line"
           id="tspan6"
           style="stroke-width:1.32292"
           x="-115.42427"
           y="11.320058">(0,0)</tspan></text>
      <text
         xml:space="preserve"
         style="font-size:49.3888px;text-align:start;writing-mode:lr-tb;direction:ltr;text-anchor:start;fill:#000000;stroke-width:1.32292"
         x="27.202684"
         y="1280.4933"
         id="text7"><tspan
           sodipodi:role="line"
           id="tspan7"
           style="stroke-width:1.32292"
           x="27.202684"
           y="1280.4933">(0,-245)</tspan></text>
      <text
         xml:space="preserve"
         style="font-size:49.3888px;text-align:start;writing-mode:lr-tb;direction:ltr;text-anchor:start;fill:#000000;stroke-width:1.32292"
         x="444.80301"
         y="914.27814"
         id="text8"><tspan
           sodipodi:role="line"
           id="tspan8"
           style="stroke-width:1.32292"
           x="444.80301"
           y="914.27814">(125,-150)</tspan></text>
      <text
         xml:space="preserve"
         style="font-size:49.3888px;text-align:start;writing-mode:lr-tb;direction:ltr;text-anchor:start;fill:#000000;stroke-width:1.32292"
         x="-8.3023729"
         y="917.20135"
         id="text9"><tspan
           sodipodi:role="line"
           id="tspan9"
           style="stroke-width:1.32292"
           x="-8.3023729"
           y="917.20135">(35,-150)</tspan></text>
      <text
         xml:space="preserve"
         style="font-size:49.3888px;text-align:start;writing-mode:lr-tb;direction:ltr;text-anchor:start;fill:#000000;stroke-width:1.32292"
         x="32.62326"
         y="429.01688"
         id="text10"><tspan
           sodipodi:role="line"
           id="tspan10"
           style="stroke-width:1.32292"
           x="32.62326"
           y="429.01688">(25,-60)</tspan></text>
      <text
         xml:space="preserve"
         style="font-size:49.3888px;text-align:start;writing-mode:lr-tb;direction:ltr;text-anchor:start;fill:#000000;stroke-width:1.32292"
         x="503.26822"
         y="569.33337"
         id="text11"><tspan
           sodipodi:role="line"
           id="tspan11"
           style="stroke-width:1.32292"
           x="503.26822"
           y="569.33337">(95,-100)</tspan></text>
      <circle
         style="fill:#000000;stroke-width:1.32292"
         id="path12"
         cx="79.395439"
         cy="361.78186"
         r="14.616303" />
      <circle
         style="fill:#000000;fill-rule:evenodd;stroke-width:1.32292"
         id="path12-21"
         cx="-52.179531"
         cy="1276.1793"
         r="14.616303" />
      <circle
         style="fill:#000000;fill-rule:evenodd;stroke-width:1.32292"
         id="path12-4"
         cx="568.17334"
         cy="814.34778"
         r="14.616303" />
      <circle
         style="fill:#000000;fill-rule:evenodd;stroke-width:1.32292"
         id="path12-2"
         cx="129.68425"
         cy="811.4245"
         r="14.616303" />
      <circle
         style="fill:#000000;fill-rule:evenodd;stroke-width:1.32292"
         id="path12-5"
         cx="457.08942"
         cy="530.7915"
         r="14.616303" />
      <circle
         style="fill:#000000;fill-rule:evenodd;stroke-width:1.32292"
         id="path12-1"
         cx="-51.557903"
         cy="65.993103"
         r="14.616303" />
      <circle
         style="fill:#000000;fill-rule:evenodd;stroke-width:1.32292"
         id="path12-27"
         cx="436.62659"
         cy="241.38873"
         r="14.616303" />
      <circle
         style="fill:#000000;fill-rule:evenodd;stroke-width:1.32292"
         id="path12-42"
         cx="670.48743"
         cy="60.146584"
         r="14.616303" />
    </g>
  </g>
</svg>
